<svg xmlns="http://www.w3.org/2000/svg" xmlns:xlink="http://www.w3.org/1999/xlink" width="154.3193359375" height="130.7796630859375" viewBox="0 0 154.3193359375 130.7796630859375" fill="none">
<g  clip-path="url(#clip-path-8AdF5IyrlGgYoGYBh34Zq)" opacity="0.7">
<path d="M20.676 5.44571L133.231 5.44571L146.251 37.2742L83.6618 91.0671C83.552 91.163 83.4402 91.2564 83.3264 91.3474C83.2124 91.4383 83.0963 91.5266 82.9785 91.6124C82.8605 91.6981 82.7408 91.7812 82.6191 91.8615C82.4975 91.9419 82.3741 92.0195 82.2489 92.0943C82.1237 92.1691 81.997 92.241 81.8687 92.31C81.7403 92.3792 81.6104 92.4454 81.4791 92.5086C81.3477 92.572 81.215 92.6323 81.081 92.6895C80.9469 92.7469 80.8116 92.8012 80.6752 92.8524C80.5387 92.9037 80.4012 92.9519 80.2625 92.9969C80.1238 93.0419 79.9841 93.0839 79.8437 93.1227C79.7031 93.1615 79.5618 93.1972 79.4196 93.2296C79.2775 93.2622 79.1348 93.2914 78.9913 93.3174C78.8478 93.3435 78.7039 93.3662 78.5595 93.3858C78.415 93.4054 78.2701 93.4218 78.1249 93.4348C77.9796 93.4479 77.8342 93.4577 77.6887 93.4642C77.543 93.4708 77.3973 93.474 77.2515 93.474C77.1058 93.474 76.96 93.4708 76.8144 93.4642C76.6686 93.4577 76.5232 93.4479 76.378 93.4348C76.2328 93.4218 76.088 93.4054 75.9436 93.3858C75.7991 93.3662 75.655 93.3435 75.5117 93.3174C75.3683 93.2914 75.2254 93.2622 75.0833 93.2296C74.9411 93.1972 74.7997 93.1615 74.6593 93.1227C74.5187 93.0839 74.3791 93.0419 74.2405 92.9969C74.1018 92.9519 73.9643 92.9037 73.8278 92.8524C73.6913 92.8012 73.556 92.7469 73.4221 92.6895C73.288 92.6323 73.1553 92.572 73.024 92.5086C72.8926 92.4454 72.7627 92.3792 72.6343 92.31C72.5059 92.241 72.3792 92.169 72.254 92.0941C72.1289 92.0193 72.0056 91.9419 71.884 91.8615C71.7622 91.7812 71.6424 91.6981 71.5246 91.6124C71.4065 91.5266 71.2906 91.4383 71.1767 91.3474C71.0627 91.2564 70.9508 91.163 70.8411 91.0671L7.97949 35.1622L20.676 5.44571Z"   fill="#F5C97C" >
</path>
<path d="M149.455 46.6414L4.97315 46.6414C4.92239 46.6414 4.87164 46.6405 4.8209 46.6387C4.77017 46.6372 4.71947 46.6348 4.66881 46.6315C4.61815 46.6283 4.56755 46.6243 4.51701 46.6195C4.46648 46.6148 4.41601 46.6093 4.36564 46.603C4.31528 46.5966 4.26501 46.5896 4.21486 46.5817C4.16471 46.5739 4.11469 46.5653 4.06479 46.5559C4.01491 46.5466 3.96518 46.5364 3.9156 46.5255C3.86602 46.5147 3.81661 46.503 3.76738 46.4905C3.71816 46.4781 3.66914 46.465 3.62033 46.451C3.57151 46.4372 3.52292 46.4226 3.47455 46.407C3.42618 46.3918 3.37805 46.3756 3.33018 46.3587C3.2823 46.3419 3.23471 46.3242 3.18737 46.3059C3.14003 46.2876 3.093 46.2685 3.04624 46.2486C2.99949 46.2289 2.95304 46.2084 2.90692 46.1872C2.86081 46.1661 2.81502 46.1441 2.76956 46.1214C2.72411 46.0989 2.67902 46.0756 2.63428 46.0516C2.58953 46.0277 2.54518 46.003 2.5012 45.9775C2.45722 45.9523 2.41364 45.9263 2.37045 45.8995C2.32727 45.8728 2.28451 45.8455 2.24216 45.8175C2.1998 45.7895 2.1579 45.7609 2.11642 45.7316C2.07496 45.7024 2.03395 45.6725 1.99339 45.6419C1.95284 45.6114 1.91277 45.5803 1.87316 45.5485C1.83356 45.5167 1.79446 45.4844 1.75585 45.4513C1.71724 45.4185 1.67915 45.3849 1.64157 45.3508C1.604 45.3167 1.56695 45.282 1.53043 45.2466C1.49392 45.2115 1.45795 45.1757 1.42253 45.1393C1.38711 45.1029 1.35226 45.066 1.31797 45.0286C1.28368 44.9912 1.24998 44.9531 1.21686 44.9147C1.18373 44.8763 1.1512 44.8372 1.11927 44.7978C1.08734 44.7584 1.05602 44.7184 1.02532 44.678C0.994611 44.6376 0.964531 44.5968 0.935078 44.5553C0.905623 44.5141 0.87681 44.4722 0.848637 44.43C0.82018 44.3878 0.792381 44.3451 0.765237 44.3019C0.738093 44.2589 0.711619 44.2154 0.685813 44.1714C0.660008 44.1275 0.634883 44.0832 0.61044 44.0385C0.585997 43.9939 0.562247 43.9489 0.539189 43.9033C0.516132 43.858 0.493778 43.8122 0.472127 43.766C0.450477 43.72 0.429541 43.6735 0.40932 43.6267C0.389096 43.58 0.369599 43.533 0.350823 43.4855C0.332048 43.4382 0.314005 43.3906 0.296696 43.3426C0.279385 43.2948 0.262816 43.2466 0.246987 43.1981C0.231157 43.1498 0.216076 43.1012 0.201743 43.0522C0.18741 43.0033 0.173832 42.9544 0.161008 42.905C0.148184 42.8556 0.136122 42.8061 0.124821 42.7565C0.113519 42.7069 0.102984 42.657 0.0932144 42.607C0.0834453 42.557 0.074447 42.5069 0.0662196 42.4565C0.0579922 42.4064 0.0505396 42.356 0.0438618 42.3054C0.0371838 42.255 0.0312838 42.2044 0.0261618 42.1536C0.0210397 42.103 0.0166979 42.0524 0.0131365 42.0015C0.00957507 41.9506 0.00679566 41.8997 0.00479825 41.8488C0.00280084 41.7979 0.00158638 41.747 0.00115488 41.6961C0.000723371 41.6452 0.00107502 41.5942 0.00220983 41.5433C0.00334464 41.4925 0.00526208 41.4414 0.00796214 41.3905C0.0106622 41.3398 0.0141436 41.289 0.0184064 41.2381C0.0226692 41.1875 0.0277112 41.1367 0.0335326 41.0861C0.039354 41.0355 0.0459519 40.985 0.0533265 40.9346C0.0607012 40.8842 0.0688488 40.834 0.0777695 40.7837C0.0866903 40.7336 0.0963798 40.6836 0.106838 40.6337C0.117297 40.5838 0.12852 40.5342 0.140506 40.4847C0.152492 40.4352 0.165237 40.3859 0.17874 40.3368C0.192242 40.2877 0.206497 40.2388 0.221504 40.1901C0.236511 40.1415 0.252263 40.093 0.268758 40.0448C0.285254 39.9966 0.302487 39.9486 0.320458 39.9009C0.338428 39.8533 0.357127 39.8059 0.376554 39.7588L13.9924 6.88681C14.0397 6.76382 14.0892 6.64175 14.1408 6.5206C14.1925 6.39945 14.2464 6.27929 14.3025 6.16012C14.3588 6.04095 14.417 5.92285 14.4775 5.80583C14.538 5.6888 14.6006 5.57293 14.6654 5.45821C14.7301 5.34349 14.7969 5.23 14.8659 5.11775C14.9348 5.00549 15.0058 4.89454 15.0788 4.7849C15.1519 4.67525 15.2269 4.56698 15.3038 4.4601C15.3809 4.35323 15.4597 4.2478 15.5407 4.14382C15.6216 4.03984 15.7044 3.93739 15.789 3.83646C15.8737 3.73554 15.9601 3.63619 16.0484 3.53845C16.1367 3.4407 16.2268 3.34462 16.3186 3.2502C16.4105 3.15576 16.5041 3.06306 16.5994 2.97208C16.6947 2.88109 16.7916 2.7919 16.8901 2.70448C16.9887 2.61707 17.0888 2.53149 17.1905 2.44776C17.2922 2.36404 17.3954 2.28221 17.5 2.20227C17.6048 2.12234 17.7109 2.04437 17.8184 1.96835C17.9261 1.89234 18.0351 1.81832 18.1453 1.7463C18.2557 1.67429 18.3673 1.60433 18.4801 1.53643C18.5931 1.46854 18.7071 1.40274 18.8223 1.33904C18.9377 1.27534 19.0541 1.21378 19.1717 1.15436C19.2892 1.09495 19.4079 1.03772 19.5275 0.982675C19.6472 0.927629 19.7678 0.874804 19.8895 0.8242C20.0111 0.773596 20.1336 0.725248 20.257 0.679154C20.3804 0.633062 20.5047 0.589256 20.6296 0.547736C20.7547 0.506216 20.8804 0.467011 21.0068 0.430119C21.1333 0.39323 21.2604 0.358679 21.3881 0.326468C21.5159 0.294257 21.6442 0.264407 21.773 0.236919C21.9018 0.209431 22.0311 0.184323 22.1609 0.161596C22.2906 0.138869 22.4208 0.118537 22.5513 0.1006C22.6818 0.0826632 22.8126 0.0671344 22.9437 0.0540133C23.0748 0.0408922 23.2061 0.0301878 23.3375 0.0218999C23.4691 0.013612 23.6006 0.0077464 23.7322 0.00430298L130.697 0.00430298C130.828 0.00764161 130.96 0.0134075 131.091 0.0216006C131.222 0.0297935 131.353 0.0404082 131.484 0.0534445C131.615 0.0664808 131.745 0.0819299 131.876 0.0997917C132.007 0.117653 132.137 0.137916 132.265 0.160578C132.395 0.183242 132.525 0.20829 132.653 0.235722C132.782 0.263156 132.91 0.292955 133.037 0.325121C133.165 0.357287 133.292 0.391797 133.418 0.428651C133.544 0.465507 133.67 0.504681 133.794 0.546173C133.92 0.587668 134.044 0.631453 134.167 0.677527C134.291 0.723602 134.413 0.771937 134.534 0.822531C134.656 0.873127 134.777 0.925947 134.895 0.980991C135.014 1.03604 135.133 1.09327 135.251 1.15269C135.368 1.21211 135.484 1.27367 135.6 1.33738C135.714 1.4011 135.827 1.46691 135.941 1.53483C136.054 1.60276 136.165 1.67274 136.275 1.74477C136.386 1.81681 136.494 1.89085 136.601 1.9669C136.709 2.04295 136.815 2.12097 136.919 2.20093C137.023 2.28088 137.126 2.36275 137.228 2.44651C137.329 2.53029 137.429 2.6159 137.527 2.70335C137.625 2.79082 137.722 2.88005 137.817 2.97108C137.913 3.0621 138.005 3.15485 138.097 3.24932C138.189 3.3438 138.279 3.43993 138.367 3.53771C138.454 3.6355 138.541 3.73488 138.625 3.83585C138.71 3.93683 138.793 4.03932 138.873 4.14333C138.953 4.24735 139.031 4.35282 139.108 4.45974C139.185 4.56667 139.26 4.67496 139.332 4.78463C139.405 4.89431 139.476 5.0053 139.544 5.11759C139.612 5.22987 139.678 5.34338 139.743 5.45812C139.808 5.57286 139.87 5.68876 139.93 5.80579C139.99 5.92284 140.049 6.04095 140.103 6.16013C140.159 6.2793 140.213 6.39947 140.265 6.52063C140.316 6.64178 140.364 6.76385 140.411 6.88681L154.052 39.7588C154.071 39.8059 154.09 39.8533 154.108 39.9009C154.126 39.9486 154.143 39.9966 154.16 40.0448C154.176 40.093 154.192 40.1415 154.207 40.1901C154.222 40.2388 154.236 40.2877 154.25 40.3368C154.264 40.3859 154.277 40.4352 154.288 40.4847C154.3 40.5342 154.311 40.5838 154.322 40.6337C154.333 40.6836 154.342 40.7336 154.351 40.7837C154.36 40.834 154.369 40.8842 154.375 40.9346C154.383 40.985 154.389 41.0355 154.395 41.0861C154.402 41.1367 154.407 41.1875 154.411 41.2381C154.414 41.289 154.418 41.3398 154.421 41.3905C154.423 41.4414 154.425 41.4925 154.426 41.5433C154.427 41.5942 154.428 41.6452 154.427 41.6961C154.427 41.747 154.426 41.7979 154.423 41.8488C154.422 41.8998 154.419 41.9507 154.416 42.0015C154.412 42.0524 154.408 42.103 154.403 42.1536C154.398 42.2044 154.391 42.255 154.385 42.3054C154.379 42.356 154.371 42.4064 154.362 42.4565C154.353 42.5069 154.344 42.557 154.336 42.607C154.325 42.657 154.315 42.7069 154.304 42.7565C154.292 42.8061 154.281 42.8556 154.268 42.905C154.254 42.9544 154.241 43.0033 154.227 43.0522C154.213 43.1012 154.198 43.1498 154.182 43.1981C154.165 43.2466 154.148 43.2948 154.132 43.3426C154.115 43.3906 154.096 43.4382 154.077 43.4855C154.058 43.533 154.039 43.58 154.019 43.6267C154 43.6735 153.978 43.72 153.956 43.766C153.935 43.8122 153.913 43.858 153.889 43.9033C153.866 43.9489 153.842 43.9939 153.818 44.0385C153.794 44.0833 153.769 44.1276 153.743 44.1714C153.717 44.2154 153.69 44.2589 153.664 44.3019C153.637 44.3451 153.609 44.3878 153.58 44.43C153.552 44.4722 153.523 44.5141 153.493 44.5553C153.464 44.5968 153.434 44.6376 153.403 44.678C153.372 44.7184 153.341 44.7584 153.309 44.7978C153.277 44.8372 153.245 44.8763 153.212 44.9147C153.179 44.9531 153.145 44.9912 153.11 45.0286C153.076 45.066 153.042 45.1029 153.006 45.1393C152.97 45.1757 152.935 45.2115 152.898 45.2466C152.861 45.282 152.824 45.3167 152.787 45.3508C152.75 45.3849 152.712 45.4185 152.673 45.4513C152.633 45.4844 152.595 45.5167 152.556 45.5485C152.516 45.5803 152.476 45.6114 152.435 45.6419C152.394 45.6725 152.353 45.7024 152.313 45.7316C152.271 45.7609 152.229 45.7895 152.187 45.8175C152.145 45.8455 152.102 45.8728 152.058 45.8995C152.015 45.9263 151.972 45.9523 151.927 45.9777C151.883 46.003 151.839 46.0277 151.795 46.0516C151.75 46.0756 151.705 46.0989 151.659 46.1214C151.614 46.1441 151.568 46.1661 151.521 46.1872C151.476 46.2084 151.43 46.2289 151.383 46.2486C151.336 46.2685 151.289 46.2876 151.241 46.3059C151.194 46.3242 151.146 46.3419 151.099 46.3587C151.051 46.3756 151.002 46.3918 150.954 46.407C150.906 46.4226 150.857 46.4372 150.808 46.451C150.759 46.465 150.711 46.4781 150.661 46.4905C150.612 46.503 150.562 46.5147 150.513 46.5255C150.463 46.5364 150.413 46.5466 150.364 46.5559C150.314 46.5653 150.263 46.5739 150.214 46.5817C150.164 46.5896 150.113 46.5966 150.063 46.603C150.013 46.6093 149.962 46.6148 149.912 46.6195C149.861 46.6243 149.81 46.6283 149.759 46.6315C149.71 46.6348 149.659 46.6372 149.608 46.6387C149.557 46.6405 149.506 46.6414 149.455 46.6414ZM12.4271 36.7027L142.001 36.7027L131.242 10.7132C131.232 10.6729 131.219 10.6333 131.204 10.5943C131.19 10.5554 131.174 10.5172 131.155 10.4799C131.135 10.4426 131.115 10.4062 131.093 10.3709C131.072 10.3356 131.048 10.3014 131.022 10.2685C130.997 10.2355 130.97 10.2039 130.941 10.1736C130.912 10.1433 130.882 10.1145 130.85 10.0871C130.819 10.0598 130.787 10.0341 130.753 10.01C130.718 9.98593 130.683 9.96356 130.647 9.94294L23.8067 9.94294C23.7431 9.99153 23.6836 10.0446 23.6279 10.1022C23.5723 10.1598 23.5212 10.2212 23.4749 10.2865C23.4286 10.3518 23.3875 10.4202 23.3514 10.4917C23.3155 10.5633 23.2851 10.6371 23.2602 10.7132L12.4271 36.7027Z"   fill="#F8E1A9" >
</path>
<path d="M87.8368 46.6414L61.8474 46.6414C61.7687 46.6415 61.6899 46.6397 61.6112 46.6361C61.5324 46.6324 61.4538 46.6269 61.3753 46.6195C61.2968 46.6121 61.2187 46.6028 61.1407 46.5918C61.0627 46.5807 60.985 46.5677 60.9075 46.5528C60.8302 46.5381 60.7532 46.5214 60.6766 46.503C60.5999 46.4845 60.5238 46.4642 60.4481 46.4422C60.3726 46.42 60.2975 46.3961 60.223 46.3705C60.1485 46.3448 60.0746 46.3174 60.0015 46.2882C59.9283 46.2591 59.8558 46.2282 59.784 46.1955C59.7123 46.1629 59.6414 46.1286 59.5713 46.0926C59.5012 46.0566 59.432 46.019 59.3637 45.9797C59.2954 45.9404 59.228 45.8996 59.1617 45.8571C59.0953 45.8146 59.03 45.7706 58.9658 45.7249C58.9015 45.6792 58.8383 45.6321 58.7763 45.5835C58.7142 45.5349 58.6534 45.485 58.5938 45.4334C58.5341 45.3819 58.4757 45.3291 58.4186 45.2748L19.8818 8.57636C19.8227 8.52024 19.7652 8.46271 19.7091 8.40377C19.653 8.34483 19.5983 8.28455 19.5451 8.22293C19.492 8.1613 19.4403 8.09841 19.3902 8.03426C19.3401 7.9701 19.2917 7.90474 19.2448 7.83821C19.1979 7.77166 19.1526 7.70401 19.109 7.63525C19.0655 7.56649 19.0237 7.49671 18.9836 7.42589C18.9434 7.35507 18.905 7.28332 18.8684 7.21062C18.8318 7.13792 18.797 7.06437 18.764 6.98996C18.731 6.91554 18.6998 6.84038 18.6705 6.76444C18.6412 6.6885 18.6138 6.6119 18.5883 6.53462C18.5627 6.45733 18.539 6.37946 18.5173 6.30101C18.4956 6.22258 18.4758 6.14365 18.458 6.06423C18.4401 5.98482 18.4242 5.90501 18.4103 5.82481C18.3964 5.74462 18.3845 5.66413 18.3744 5.58334C18.3644 5.50257 18.3565 5.42159 18.3505 5.34041C18.3445 5.25923 18.3405 5.17796 18.3384 5.09659C18.3364 5.01522 18.3364 4.93385 18.3384 4.85247C18.3404 4.77109 18.3444 4.68983 18.3504 4.60865C18.3563 4.52747 18.3643 4.44649 18.3742 4.3657C18.3842 4.28492 18.3962 4.20442 18.4101 4.12422C18.4239 4.04402 18.4398 3.9642 18.4576 3.88478C18.4755 3.80535 18.4952 3.72643 18.5168 3.64797C18.5385 3.56951 18.5621 3.49164 18.5877 3.41435C18.6132 3.33706 18.6406 3.26044 18.6699 3.18449C18.6991 3.10855 18.7302 3.03336 18.7632 2.95894C18.7962 2.88452 18.831 2.81095 18.8676 2.73824C18.9042 2.66554 18.9425 2.59376 18.9826 2.52293C19.0227 2.4521 19.0645 2.38229 19.1081 2.31351C19.1516 2.24474 19.1968 2.17707 19.2436 2.11052C19.2905 2.04397 19.339 1.9786 19.389 1.91442C19.4391 1.85024 19.4907 1.78733 19.5439 1.72569C19.597 1.66405 19.6517 1.60374 19.7077 1.54478C19.7639 1.48581 19.8214 1.42827 19.8804 1.37212C19.9393 1.31598 19.9996 1.26133 20.0613 1.20815C20.1228 1.15497 20.1857 1.10334 20.2499 1.05325C20.3141 1.00316 20.3794 0.954674 20.446 0.907793C20.5125 0.860912 20.5801 0.815692 20.6489 0.772132C20.7177 0.728572 20.7875 0.686725 20.8583 0.646592C20.929 0.606458 21.0008 0.568087 21.0736 0.531476C21.1462 0.494866 21.2198 0.460061 21.2942 0.427062C21.3686 0.394063 21.4437 0.362909 21.5197 0.3336C21.5956 0.304293 21.6722 0.276865 21.7495 0.251316C21.8268 0.22577 21.9046 0.202135 21.9831 0.180411C22.0615 0.158686 22.1405 0.138899 22.22 0.121051C22.2993 0.103202 22.3791 0.0873124 22.4593 0.0733818C22.5395 0.0594511 22.62 0.0474963 22.7007 0.0375174C22.7816 0.0275385 22.8626 0.0195476 22.9437 0.0135447C23.0249 0.00754158 23.1062 0.00353371 23.1876 0.00152099C23.2689 -0.000491735 23.3503 -0.000506878 23.4316 0.00147556C23.513 0.00345798 23.5943 0.00743558 23.6755 0.0134084C23.7567 0.0193812 23.8376 0.027342 23.9184 0.0372909C23.9992 0.0472396 24.0797 0.0591645 24.16 0.0730652C24.2401 0.086966 24.3199 0.102826 24.3994 0.120646C24.4788 0.138464 24.5577 0.158222 24.6361 0.179917C24.7146 0.201612 24.7925 0.225218 24.8697 0.250736C24.9471 0.276254 25.0237 0.303654 25.0996 0.332934C25.1756 0.362214 25.2508 0.39334 25.3252 0.426311C25.3996 0.459283 25.4731 0.494061 25.5459 0.530643C25.6186 0.567227 25.6903 0.605573 25.7612 0.64568C25.832 0.685787 25.9018 0.727608 25.9706 0.771142C26.0394 0.814676 26.107 0.859871 26.1736 0.906727C26.2402 0.953584 26.3055 1.00205 26.3697 1.05211C26.4339 1.10218 26.4968 1.15379 26.5585 1.20694C26.6201 1.26009 26.6804 1.31473 26.7394 1.37085L63.8352 36.7027L85.9485 36.7027L125.107 1.89263C125.168 1.83882 125.23 1.78655 125.293 1.7358C125.357 1.68505 125.422 1.63588 125.488 1.58831C125.554 1.54074 125.621 1.49483 125.689 1.45054C125.757 1.40627 125.827 1.3637 125.897 1.32283C125.967 1.28195 126.039 1.24282 126.111 1.20544C126.183 1.16806 126.256 1.13247 126.33 1.09868C126.404 1.0649 126.479 1.03294 126.555 1.00282C126.63 0.972699 126.706 0.94445 126.783 0.918071C126.86 0.891693 126.938 0.867218 127.016 0.844645C127.094 0.822073 127.173 0.80143 127.252 0.782716C127.331 0.764005 127.41 0.747244 127.49 0.732436C127.571 0.717627 127.651 0.704789 127.732 0.693922C127.812 0.683055 127.893 0.674171 127.973 0.66727C128.055 0.66037 128.136 0.655462 128.218 0.652543C128.299 0.649626 128.381 0.648704 128.462 0.649777C128.543 0.650851 128.624 0.653917 128.705 0.658977C128.786 0.664038 128.867 0.671087 128.948 0.680124C129.029 0.68916 129.11 0.700174 129.19 0.713163C129.27 0.726154 129.35 0.741105 129.43 0.758016C129.51 0.774929 129.589 0.793783 129.667 0.814578C129.746 0.835374 129.824 0.858084 129.901 0.882709C129.979 0.907336 130.056 0.933848 130.132 0.962247C130.209 0.990646 130.284 1.0209 130.359 1.053C130.434 1.0851 130.507 1.11902 130.58 1.15475C130.653 1.19048 130.725 1.22798 130.796 1.26725C130.868 1.30652 130.938 1.34752 131.008 1.39024C131.076 1.43295 131.144 1.47734 131.211 1.5234C131.278 1.56947 131.344 1.61714 131.41 1.66644C131.474 1.71574 131.537 1.76659 131.599 1.81899C131.662 1.87139 131.723 1.9253 131.782 1.98069C131.842 2.03609 131.9 2.09291 131.957 2.15117C132.014 2.20942 132.069 2.26903 132.123 2.32999C132.177 2.39095 132.229 2.4532 132.28 2.51674C132.331 2.58026 132.38 2.645 132.427 2.71096C132.475 2.77689 132.521 2.84398 132.565 2.91218C132.61 2.98039 132.653 3.04963 132.693 3.11993C132.734 3.19022 132.773 3.26148 132.81 3.33371C132.848 3.40593 132.883 3.47902 132.917 3.55298C132.951 3.62695 132.983 3.70171 133.014 3.77724C133.044 3.85277 133.072 3.929 133.099 4.00593C133.126 4.08286 133.15 4.16041 133.172 4.23853C133.195 4.31666 133.215 4.39531 133.234 4.47445C133.253 4.5536 133.27 4.63315 133.285 4.71313C133.299 4.7931 133.312 4.87339 133.323 4.954C133.334 5.0346 133.343 5.11542 133.35 5.19647C133.357 5.27753 133.363 5.35869 133.365 5.43998C133.369 5.52126 133.37 5.60258 133.369 5.68391C133.367 5.76524 133.364 5.84651 133.359 5.92771C133.355 6.0089 133.348 6.08991 133.338 6.17076C133.329 6.25161 133.318 6.33218 133.305 6.4125C133.293 6.49281 133.278 6.57276 133.261 6.65234C133.244 6.73191 133.225 6.81102 133.205 6.88968C133.184 6.96834 133.161 7.04644 133.136 7.12398C133.112 7.20153 133.085 7.27843 133.057 7.35468C133.028 7.43092 132.998 7.50643 132.967 7.58119C132.935 7.65596 132.901 7.72989 132.865 7.80301C132.829 7.87611 132.792 7.94829 132.753 8.01956C132.713 8.09082 132.672 8.16108 132.63 8.23034C132.587 8.2996 132.543 8.36777 132.496 8.43485C132.45 8.50194 132.403 8.56785 132.354 8.63259C132.304 8.69734 132.254 8.76083 132.201 8.82308C132.149 8.88533 132.095 8.94627 132.039 9.00587C131.984 9.06548 131.927 9.12369 131.869 9.18052C131.811 9.23734 131.752 9.2927 131.691 9.3466L91.1414 45.3741C91.0853 45.4244 91.0279 45.4735 90.9695 45.5212C90.9111 45.5689 90.8517 45.6152 90.7912 45.6601C90.7307 45.7052 90.6692 45.7488 90.6067 45.7909C90.5442 45.833 90.4807 45.8739 90.4164 45.9132C90.352 45.9525 90.2867 45.9903 90.2207 46.0265C90.1547 46.0629 90.0877 46.0978 90.0202 46.131C89.9525 46.1642 89.8841 46.196 89.815 46.2261C89.7459 46.2563 89.6761 46.2849 89.6057 46.3119C89.5354 46.339 89.4644 46.3643 89.3929 46.3881C89.3212 46.4119 89.2492 46.434 89.1766 46.4545C89.1041 46.475 89.0311 46.4937 88.9576 46.5109C88.8842 46.528 88.8104 46.5436 88.7363 46.5574C88.6621 46.5712 88.5878 46.5833 88.5131 46.5937C88.4385 46.6041 88.3635 46.6129 88.2885 46.6199C88.2134 46.6269 88.1382 46.6321 88.0629 46.6357C87.9876 46.6394 87.9123 46.6413 87.8368 46.6414Z"   fill="#F8E1A9" >
</path>
<path d="M78.2954 130.275C78.1987 130.275 78.1021 130.274 78.0054 130.273C77.9089 130.27 77.8123 130.266 77.7159 130.261C77.6193 130.256 77.5229 130.249 77.4267 130.241C77.3303 130.233 77.2341 130.224 77.1382 130.213C77.042 130.203 76.9462 130.191 76.8505 130.177C76.7547 130.163 76.6592 130.149 76.564 130.133C76.4686 130.116 76.3736 130.099 76.2789 130.08C76.184 130.062 76.0896 130.041 75.9955 130.019C75.9012 129.998 75.8073 129.975 75.7138 129.951C75.6202 129.927 75.527 129.901 75.4343 129.874C75.3414 129.847 75.2489 129.819 75.1569 129.789C75.0648 129.76 74.9734 129.73 74.8823 129.697C74.7912 129.665 74.7005 129.632 74.6103 129.597C74.5201 129.562 74.4304 129.526 74.3412 129.489C74.2521 129.452 74.1636 129.413 74.0756 129.373C73.9874 129.333 73.9 129.292 73.8131 129.25C73.7263 129.207 73.6401 129.164 73.5543 129.119C73.4688 129.074 73.3839 129.027 73.2996 128.98C73.2153 128.933 73.1317 128.885 73.0489 128.835C72.9659 128.786 72.8836 128.735 72.8022 128.682C72.7208 128.63 72.64 128.578 72.5601 128.523C72.4802 128.469 72.4011 128.413 72.3226 128.357C72.2443 128.301 72.1667 128.243 72.09 128.184C72.0133 128.125 71.9375 128.065 71.8624 128.004C71.7875 127.943 71.7134 127.881 71.6403 127.818C71.567 127.756 71.4948 127.692 71.4234 127.626C71.3519 127.561 71.2815 127.495 71.2121 127.428C71.1425 127.361 71.0739 127.293 71.0064 127.223C70.9389 127.154 70.8724 127.084 70.8069 127.013C70.7412 126.942 70.6767 126.87 70.6134 126.797C70.5498 126.724 70.4873 126.65 70.4258 126.576C70.3646 126.501 70.3043 126.426 70.2452 126.349L1.17185 44.8772C1.13391 44.8323 1.09678 44.7867 1.06045 44.7405C1.02413 44.6942 0.988639 44.6473 0.953981 44.5998C0.919323 44.5522 0.885521 44.5041 0.852573 44.4554C0.819625 44.4066 0.787553 44.3573 0.756356 44.3074C0.725158 44.2575 0.694857 44.2071 0.66545 44.1561C0.636044 44.1053 0.607551 44.0538 0.579971 44.0018C0.552392 43.9498 0.525744 43.8974 0.500026 43.8446C0.47431 43.7916 0.44954 43.7383 0.425717 43.6845C0.401894 43.6307 0.379034 43.5765 0.357135 43.5219C0.335238 43.4673 0.314315 43.4123 0.294368 43.3569C0.274422 43.3016 0.255465 43.246 0.237497 43.1899C0.219528 43.1339 0.20256 43.0776 0.186592 43.021C0.170623 42.9644 0.155664 42.9075 0.141716 42.8503C0.127767 42.7932 0.114837 42.7358 0.102927 42.6782C0.091016 42.6206 0.0801315 42.5628 0.0702736 42.5048C0.0604154 42.4468 0.0515899 42.3887 0.043797 42.3304C0.036004 42.272 0.0292485 42.2136 0.0235307 42.1551C0.0178127 42.0965 0.0131358 42.0379 0.00950014 41.9791C0.00586439 41.9204 0.00327203 41.8617 0.00172305 41.8029C0.000174077 41.7441 -0.000330533 41.6853 0.000209218 41.6265C0.000748969 41.5676 0.00233274 41.5088 0.00496053 41.4501C0.00758834 41.3914 0.0112585 41.3326 0.0159711 41.2739C0.0206836 41.2153 0.0264355 41.1568 0.0332269 41.0984C0.0400182 41.0399 0.0478446 40.9816 0.0567062 40.9234C0.0655676 40.8653 0.0754587 40.8074 0.0863794 40.7495C0.0973001 40.6918 0.109243 40.6342 0.122209 40.5768C0.135175 40.5193 0.149155 40.4622 0.16415 40.4054C0.179145 40.3485 0.195145 40.2919 0.212149 40.2355C0.229155 40.1792 0.247154 40.1233 0.266147 40.0676C0.285141 40.0119 0.305116 39.9566 0.326074 39.9016C0.347033 39.8466 0.368961 39.7921 0.391855 39.7379C0.414753 39.6837 0.438603 39.6299 0.463408 39.5766C0.488215 39.5233 0.51396 39.4704 0.540643 39.4179C0.567326 39.3655 0.594932 39.3136 0.62346 39.2622C0.65199 39.2107 0.681422 39.1598 0.711758 39.1094C0.742095 39.059 0.773317 39.0092 0.805423 38.9599C0.83753 38.9105 0.870502 38.8618 0.904338 38.8137C0.938175 38.7656 0.972855 38.7181 1.00838 38.6712C1.0439 38.6243 1.08025 38.5781 1.11741 38.5324C1.15458 38.4869 1.19254 38.442 1.2313 38.3977C1.27006 38.3534 1.3096 38.3099 1.34991 38.2671C1.39021 38.2242 1.43126 38.1821 1.47307 38.1407C1.51487 38.0993 1.5574 38.0587 1.60065 38.0188C1.6439 37.979 1.68784 37.9399 1.73247 37.9015C1.7771 37.8632 1.82241 37.8257 1.86837 37.789C1.91435 37.7522 1.96095 37.7164 2.00819 37.6813C2.05544 37.6463 2.10328 37.6121 2.15173 37.5787C2.20019 37.5453 2.24922 37.5128 2.29884 37.4812C2.34845 37.4496 2.3986 37.4189 2.4493 37.3891C2.50001 37.3592 2.55122 37.3303 2.60295 37.3023C2.65467 37.2743 2.70689 37.2472 2.75957 37.221C2.81226 37.1949 2.8654 37.1697 2.91899 37.1455C2.97257 37.1212 3.02658 37.0979 3.08098 37.0755C3.1354 37.0531 3.1902 37.0317 3.24536 37.0114C3.30054 36.9909 3.35606 36.9715 3.41192 36.9531C3.46778 36.9347 3.52395 36.9173 3.58042 36.9008C3.63691 36.8844 3.69368 36.8689 3.7507 36.8545C3.80773 36.8401 3.86499 36.8267 3.9225 36.8143C3.98001 36.8018 4.03772 36.7905 4.09563 36.7802C4.15354 36.7699 4.21161 36.7605 4.26985 36.7522C4.32809 36.7439 4.38646 36.7367 4.44496 36.7305C4.50345 36.7243 4.56205 36.7191 4.62073 36.7149C4.67941 36.7109 4.73815 36.7078 4.79694 36.7058C4.85573 36.7037 4.91453 36.7027 4.97336 36.7027L149.456 36.7027C149.513 36.7038 149.57 36.7059 149.627 36.7088C149.685 36.7119 149.742 36.7159 149.799 36.7209C149.856 36.7259 149.912 36.732 149.97 36.739C150.027 36.7459 150.084 36.7539 150.14 36.7629C150.197 36.7718 150.253 36.7817 150.309 36.7927C150.367 36.8036 150.423 36.8155 150.479 36.8283C150.534 36.8412 150.59 36.855 150.645 36.8698C150.7 36.8845 150.756 36.9003 150.811 36.917C150.865 36.9337 150.92 36.9513 150.975 36.9699C151.028 36.9884 151.082 37.0079 151.136 37.0283C151.19 37.0487 151.243 37.0701 151.295 37.0924C151.347 37.1147 151.401 37.1379 151.453 37.162C151.505 37.1861 151.556 37.2111 151.607 37.2369C151.659 37.2628 151.71 37.2896 151.76 37.3172C151.809 37.3449 151.859 37.3734 151.908 37.4027C151.958 37.4321 152.006 37.4622 152.055 37.4933C152.103 37.5243 152.15 37.5562 152.197 37.589C152.244 37.6216 152.291 37.6551 152.337 37.6895C152.383 37.7237 152.429 37.7588 152.473 37.7947C152.518 37.8306 152.562 37.8672 152.606 37.9046C152.649 37.942 152.692 37.9801 152.734 38.019C152.776 38.0579 152.818 38.0975 152.859 38.1378C152.9 38.1781 152.939 38.2191 152.978 38.2608C153.018 38.3025 153.057 38.3448 153.094 38.3879C153.132 38.4309 153.169 38.4746 153.206 38.5189C153.243 38.5633 153.279 38.6083 153.313 38.6538C153.347 38.6993 153.382 38.7455 153.415 38.7922C153.448 38.839 153.48 38.8862 153.511 38.9341C153.543 38.9819 153.575 39.0303 153.604 39.0792C153.634 39.1282 153.663 39.1776 153.691 39.2274C153.72 39.2774 153.747 39.3278 153.774 39.3787C153.8 39.4295 153.826 39.4808 153.85 39.5326C153.874 39.5844 153.898 39.6366 153.921 39.6891C153.944 39.7417 153.966 39.7946 153.987 39.8479C154.009 39.9013 154.028 39.9549 154.047 40.009C154.066 40.063 154.085 40.1174 154.102 40.1721C154.12 40.2267 154.136 40.2816 154.151 40.3368C154.167 40.3921 154.181 40.4476 154.195 40.5034C154.209 40.5591 154.22 40.615 154.232 40.6712C154.243 40.7273 154.254 40.7837 154.263 40.8402C154.274 40.8967 154.282 40.9534 154.29 41.0102C154.298 41.067 154.304 41.124 154.309 41.1811C154.316 41.2381 154.319 41.2952 154.323 41.3524C154.327 41.4097 154.331 41.4669 154.332 41.5242C154.333 41.5815 154.335 41.6389 154.333 41.6962C154.333 41.7535 154.332 41.8108 154.329 41.8681C154.327 41.9254 154.323 41.9826 154.319 42.0398C154.316 42.097 154.31 42.1541 154.304 42.211C154.298 42.2681 154.291 42.3249 154.282 42.3816C154.274 42.4384 154.265 42.495 154.254 42.5514C154.246 42.6078 154.234 42.6641 154.221 42.7202C154.21 42.7762 154.196 42.832 154.182 42.8876C154.168 42.9432 154.154 42.9985 154.137 43.0535C154.121 43.1086 154.104 43.1634 154.087 43.2179C154.069 43.2724 154.05 43.3266 154.031 43.3803C154.011 43.4342 153.99 43.4877 153.968 43.5408C153.947 43.594 153.925 43.6467 153.901 43.699C153.878 43.7514 153.854 43.8033 153.828 43.8548C153.803 43.9063 153.776 43.9574 153.749 44.0079C153.723 44.0586 153.696 44.1087 153.667 44.1583C153.637 44.2079 153.608 44.257 153.578 44.3056C153.547 44.3543 153.517 44.4024 153.485 44.4499C153.453 44.4974 153.42 44.5443 153.386 44.5907C153.351 44.6372 153.317 44.683 153.282 44.7281L86.445 126.225C86.3864 126.303 86.3266 126.38 86.2658 126.456C86.2048 126.532 86.1429 126.607 86.0799 126.681C86.0168 126.756 85.9527 126.829 85.8875 126.901C85.8223 126.974 85.7561 127.045 85.6889 127.116C85.6218 127.186 85.5535 127.256 85.4843 127.325C85.415 127.393 85.3448 127.461 85.2737 127.527C85.2025 127.593 85.1302 127.658 85.0573 127.723C84.9841 127.787 84.9101 127.851 84.8353 127.914C84.7602 127.976 84.6844 128.037 84.6077 128.097C84.5311 128.157 84.4536 128.216 84.3751 128.274C84.2969 128.331 84.2176 128.388 84.1376 128.444C84.0575 128.499 83.9767 128.554 83.8951 128.607C83.8135 128.661 83.7311 128.713 83.6479 128.764C83.5649 128.815 83.4812 128.864 83.3967 128.913C83.3121 128.961 83.2268 129.008 83.141 129.054C83.055 129.1 82.9685 129.144 82.8813 129.189C82.794 129.232 82.7062 129.274 82.618 129.315C82.5294 129.355 82.4404 129.395 82.3509 129.434C82.2614 129.472 82.1713 129.509 82.0807 129.545C81.99 129.58 81.8989 129.615 81.8072 129.648C81.7156 129.681 81.6235 129.713 81.5309 129.743C81.4384 129.774 81.3454 129.803 81.2521 129.831C81.1587 129.859 81.065 129.885 80.9707 129.91C80.8766 129.935 80.7822 129.959 80.6872 129.981C80.5923 130.003 80.4972 130.024 80.4018 130.044C80.3064 130.063 80.2107 130.081 80.1148 130.098C80.0188 130.115 79.9226 130.131 79.8262 130.145C79.7298 130.159 79.6331 130.171 79.5364 130.182C79.4396 130.194 79.3426 130.204 79.2456 130.213C79.1485 130.221 79.0513 130.228 78.954 130.233C78.8569 130.239 78.7596 130.243 78.6621 130.246C78.5647 130.248 78.4674 130.25 78.3699 130.25L78.2954 130.275ZM15.7071 46.6414L77.8232 120.013L77.9724 120.212C77.9919 120.22 78.0123 120.226 78.0333 120.231C78.0542 120.235 78.0753 120.237 78.0966 120.237C78.1179 120.237 78.139 120.235 78.1599 120.231C78.1807 120.226 78.2011 120.22 78.2208 120.212C78.2613 120.225 78.3027 120.231 78.3451 120.231C78.3873 120.231 78.4288 120.225 78.4693 120.212L78.6184 119.989L138.946 46.6414L15.7071 46.6414Z"   fill="#F8E1A9" >
</path>
</g>
<defs>
<clipPath id="clip-path-8AdF5IyrlGgYoGYBh34Zq">
<path d="M0 130.78L154.319 130.78L154.319 0L0 0L0 130.78Z" fill="white"/>
</clipPath>
</defs>
</svg>
