<?xml version="1.0" standalone="no"?><!DOCTYPE svg PUBLIC "-//W3C//DTD SVG 1.1//EN" "http://www.w3.org/Graphics/SVG/1.1/DTD/svg11.dtd"><svg t="1713499846933" class="icon" viewBox="0 0 1357 1024" version="1.1" xmlns="http://www.w3.org/2000/svg" p-id="4361" xmlns:xlink="http://www.w3.org/1999/xlink" width="265.0390625" height="200"><path d="M233.427478 642.003478c42.896696 159.610435 167.401739 292.59687 338.498783 338.454261 171.119304 45.857391 345.421913-7.078957 462.380522-123.837217l24.665043 6.611478c-122.345739 128.534261-309.337043 187.881739-492.81113 138.729739C382.70887 952.765217 250.434783 807.891478 208.762435 635.414261l24.665043 6.611478z m391.835826 240.550957l-12.377043 26.846608 15.11513 25.421914-29.384348-3.472696-19.47826 22.216348-5.787826-28.983652-27.158261-11.686957 25.800347-14.469565 2.715827-29.42887 21.704347 20.079305 28.850087-6.522435z m137.082435 7.94713l-4.986435 29.139478 21.147826 20.635827-29.228521 4.229565-13.089392 26.534956-13.089391-26.512695-29.250783-4.251826 21.147827-20.635827-4.986435-29.161739 26.178782 13.779479 26.156522-13.757218z m-295.846956-93.606956l8.770782 28.226782 28.249044 8.770783-24.153044 17.074087 0.378435 29.562435-23.685565-17.675131-28.004174 9.483131 9.48313-27.981913-17.67513-23.707826 29.562435 0.378434 17.074087-24.130782z m392.281043 12.688695a332.8 332.8 0 0 1-249.388522 31.098435 332.8 332.8 0 0 1-200.45913-151.618782l32.100174 8.592695a310.383304 310.383304 0 0 0 174.102261 121.544348c73.371826 19.634087 147.656348 11.419826 211.567304-18.209391l32.077913 8.592695z m-191.643826-120.07513c13.423304 3.584 21.192348 9.349565 30.586435 20.992l5.542956 7.190261c11.152696 14.758957 18.988522 21.147826 35.172174 25.488695 14.358261 3.85113 23.195826 3.049739 38.511305-2.381913l5.476173-2.025739c20.858435-7.92487 32.50087-9.661217 51.867827-4.474435 17.92 4.808348 26.713043 11.264 38.466782 25.778087l3.027478 3.82887c11.954087 15.449043 18.899478 21.147826 35.394783 25.555478 15.159652 4.073739 24.665043 3.250087 40.403478-2.270608l6.344348-2.315131c19.812174-7.457391 30.96487-9.149217 48.662261-4.407652 17.007304 4.563478 24.798609 10.885565 34.05913 24.932174l2.381913 3.673043c9.037913 14.469565 14.647652 19.656348 29.807305 23.707826 13.57913 3.628522 22.216348 2.82713 36.930782-2.448695l6.010435-2.226087c20.591304-7.902609 32.478609-9.683478 51.801044-4.496696 17.719652 4.741565 26.846609 11.286261 38.778434 25.6l3.82887 4.674783c12.02087 15.09287 19.033043 20.813913 34.682435 24.998956 14.669913 3.917913 24.976696 2.938435 39.913739-2.448695l10.818783-4.229566c15.248696-5.965913 25.221565-7.546435 38.110608-4.096l5.387131 1.446957-2.893913 10.752-5.36487-1.446957c-9.015652-2.404174-16.183652-1.691826-26.957913 2.114783l-10.395826 4.029217c-19.545043 7.724522-32.634435 9.683478-51.489391 4.630261-16.896-4.518957-25.622261-10.863304-37.264696-24.798608l-3.739826-4.608c-12.354783-15.493565-19.72313-21.437217-36.285217-25.867131-15.11513-4.051478-24.531478-3.205565-40.091827 2.337391l-6.255304 2.337392c-19.656348 7.501913-30.72 9.238261-48.39513 4.496695-16.985043-4.541217-24.754087-10.863304-34.014609-24.887652l-2.381913-3.695304c-9.037913-14.469565-14.647652-19.656348-29.874087-23.730087-13.57913-3.650783-22.305391-2.849391-37.175652 2.381913l-6.099478 2.226087c-20.791652 7.813565-32.745739 9.572174-52.090435 4.385391-17.853217-4.763826-26.646261-11.219478-38.355479-25.689043l-3.027478-3.851131c-11.976348-15.471304-18.921739-21.170087-35.528348-25.622261-15.270957-4.096-24.531478-3.227826-40.514782 2.448696l-5.209044 1.936696c-20.390957 7.746783-31.610435 9.46087-50.153739 4.496695-18.988522-5.097739-28.627478-12.978087-41.182609-29.540173l-2.292869-3.072c-9.572174-12.644174-15.805217-17.853217-27.803826-21.058783l-5.387131-1.446957 2.893913-10.752 5.36487 1.446957z m8.659478-32.256c13.401043 3.584 21.192348 9.349565 30.586435 20.992l5.520696 7.190261c11.174957 14.758957 19.010783 21.147826 35.172174 25.488695 14.358261 3.85113 23.195826 3.049739 38.511304-2.381913l5.498435-2.025739c20.836174-7.92487 32.50087-9.661217 51.867826-4.452174 17.92 4.786087 26.713043 11.241739 38.444522 25.755826l3.027478 3.82887c11.954087 15.449043 18.921739 21.147826 35.417043 25.577739 15.137391 4.051478 24.642783 3.227826 40.381218-2.292869l6.344348-2.315131c19.812174-7.457391 30.96487-9.149217 48.66226-4.407652 17.007304 4.563478 24.798609 10.885565 34.081392 24.932174l2.359652 3.695304c9.037913 14.469565 14.647652 19.634087 29.829565 23.685565 13.55687 3.650783 22.194087 2.82713 36.908522-2.448695l6.010435-2.226087c20.591304-7.902609 32.478609-9.683478 51.823304-4.496696 17.719652 4.741565 26.824348 11.308522 38.778435 25.6l3.806608 4.674783c12.02087 15.11513 19.033043 20.813913 34.682435 24.998956 14.692174 3.917913 24.998957 2.960696 39.913739-2.448695l10.841044-4.229566c15.226435-5.965913 25.199304-7.546435 38.088348-4.096l5.38713 1.446957-2.893913 10.752-5.36487-1.446957c-8.993391-2.404174-16.183652-1.691826-26.935652 2.137044l-10.418087 4.006956c-19.545043 7.724522-32.634435 9.683478-51.489391 4.630261-16.896-4.518957-25.622261-10.863304-37.264696-24.798608l-3.739826-4.608c-12.332522-15.493565-19.70087-21.437217-36.285217-25.867131-15.09287-4.051478-24.509217-3.205565-40.069565 2.337391l-6.277566 2.337392c-19.634087 7.501913-30.72 9.238261-48.39513 4.496695-16.985043-4.541217-24.754087-10.863304-34.014609-24.887652l-2.359652-3.695304c-9.037913-14.469565-14.692174-19.656348-29.874087-23.730087-13.601391-3.650783-22.327652-2.849391-37.197913 2.381913l-6.077217 2.226087c-20.813913 7.835826-32.768 9.572174-52.112696 4.407652-17.853217-4.786087-26.624-11.241739-38.333217-25.711304l-3.027479-3.851131c-11.976348-15.471304-18.944-21.170087-35.550608-25.6-15.270957-4.118261-24.531478-3.250087-40.514783 2.448696l-5.209043 1.914435c-20.368696 7.746783-31.610435 9.46087-50.153739 4.496695-18.966261-5.097739-28.627478-12.978087-41.160348-29.540173l-2.315131-3.072c-9.572174-12.621913-15.805217-17.830957-27.803826-21.058783l-5.364869-1.446957 2.893913-10.752 5.342608 1.446957z m278.77287-175.727304l-54.205218 202.284521c-3.673043 13.734957-12.421565 19.366957-25.733565 16.784696l-2.916174-0.667826-27.358608-7.346087-0.24487-19.70087c9.416348 3.094261 18.031304 5.943652 26.290087 8.169739 5.965913 1.580522 10.106435-0.578783 12.399304-6.522434l0.779131-2.404174 14.180174-52.891826-50.064696-13.401044c-11.753739 30.541913-27.870609 54.494609-48.461913 72.258783l-5.231304 4.318609-10.685218-16.962783 0.823652-0.601044 0.623305-0.667826-16.294957 6.144a295.067826 295.067826 0 0 0-13.000348-42.629565l-3.072-7.858087 16.87374-5.164522c7.991652 18.743652 13.601391 34.905043 17.007304 47.972174 21.904696-18.120348 37.843478-43.631304 48.150261-76.221217l2.114782-7.101217 32.367305-120.742957 85.659826 22.928696z m-620.633044-178.198261l17.14087 8.192c-3.984696 9.505391-8.147478 18.498783-12.421565 27.113739l-4.296348 8.503652 65.268869 17.497043-4.763826 17.808696-17.029565-4.563478c-12.510609 42.540522-29.985391 76.866783-52.090435 103.579826 5.89913 23.485217 14.758957 43.497739 26.846609 59.725913l4.140522 5.253565-15.204174 13.356522c-13.57913-17.452522-23.440696-38.355478-29.829565-63.020522a186.768696 186.768696 0 0 1-54.583653 36.285218l-7.70226 3.161043-5.965913-19.033043a158.430609 158.430609 0 0 0 63.421217-41.627826c-4.34087-23.017739-6.121739-48.37287-5.787826-76.488348-5.498435 6.611478-10.99687 12.599652-16.517565 18.075826l-5.520696 5.342608-7.546435-17.252173c23.329391-23.062261 44.29913-56.987826 62.441739-101.910261z m306.710261 205.245217l-26.957913 100.619131c-3.472696 12.955826-11.798261 18.16487-24.531478 15.738434l-3.005217-0.690087-21.682087-5.810087 0.044521-17.697391 20.435479 6.299826c5.498435 1.491478 9.416348-0.089043 11.353043-4.630261l0.601044-1.825391 3.940173-14.714435-83.344695-22.327652-10.974609 41.026783-17.808696-4.786087 32.968348-123.080348 118.962087 31.877565z m78.380522 92.360348l13.022609 11.241739a233.828174 233.828174 0 0 1-40.002783 34.816l-7.034435 4.563478-11.887304-14.514087a196.207304 196.207304 0 0 0 45.901913-36.10713z m338.253913-40.448l14.002087 11.776a209.229913 209.229913 0 0 1-26.401391 27.158261l-7.41287 6.099478-34.971826 130.56-17.808696-4.786087 29.451131-109.924174c-9.527652 5.854609-19.589565 11.041391-30.074435 15.716174l-7.94713 3.428174-0.667827-19.255652c33.903304-14.981565 61.19513-35.328 81.830957-60.772174zM191.910957 329.683478l16.762434 8.637218-4.229565 5.89913-4.140522 5.698783 76.377044 20.48c-16.62887 62.063304-28.605217 102.689391-35.817739 122.212174l-0.890435 2.448695-1.669565 4.140522c-7.568696 18.988522-21.058783 25.889391-40.648348 20.635826a133.654261 133.654261 0 0 1-4.296348-1.246609l-2.604522-0.801391-17.853217-5.698783 0.289391-17.608347c10.173217 3.272348 18.810435 6.144 26.557218 8.236521 10.329043 2.738087 18.053565-2.381913 23.462956-15.315478 3.405913-7.635478 9.594435-27.247304 18.654609-58.612869l1.847652-6.433392 11.130435-39.579826-66.56-17.830956c-5.36487 6.010435-10.907826 11.553391-16.473044 16.584347l-5.609739 4.897392 58.546087 15.671652-19.812174 74.061913-61.662608-16.539826 18.654608-69.676522-1.914435 1.446957-1.892173 1.402434-7.212522 5.275827-8.080696-17.363479c17.497043-11.642435 33.925565-28.538435 49.085218-51.021913z m992.033391 316.438261l-5.12 19.077565 30.208 8.102957-4.652522 17.274435-30.185739-8.080696-17.764174 66.31513c-4.185043 15.649391-13.868522 22.127304-28.582956 19.322435l-3.227827-0.734608-36.641391-9.817044 0.667826-18.921739c11.642435 3.962435 23.129043 7.568696 33.947826 10.484869 7.68 2.048 13.000348-0.556522 15.693913-7.479652l0.801392-2.470956 16.539826-61.662609-100.129392-26.846609 4.652522-17.274434 100.107131 26.824347 5.12-19.099826 18.565565 4.986435z m-695.830261-215.485217l-30.341565 113.263304c7.257043-3.85113 14.781217-8.125217 22.79513-12.822261l8.214261-4.852869-0.356174 20.925217c-15.36 9.238261-31.187478 17.207652-47.081739 23.863652l-9.572174 3.806609-2.782609-18.432c4.006957-2.159304 6.856348-4.808348 8.370087-8.192l0.734609-2.092522 27.447652-102.444522-36.886261-9.883826 4.763826-17.808695 54.694957 14.669913zM1083.258435 668.93913c10.50713 18.587826 18.142609 34.459826 22.995478 47.371131l-17.229913 6.455652a342.349913 342.349913 0 0 0-22.639304-48.662261l16.873739-5.164522z m-473.488696-116.357565l-83.344696-22.327652-5.053217 18.832696 83.344696 22.327652 5.053217-18.832696zM204.354783 413.228522L174.970435 405.370435l-11.419826 42.562782 29.428869 7.880348 11.397565-42.562782z m567.362782 9.616695l-7.746782 28.894609 50.309565 13.490087 7.613217-28.382609 18.075826 4.830609-7.613217 28.382609 15.493565 4.162782-4.652522 17.274435-15.471304-4.140522-29.250783 109.145044 16.784696 4.496696-4.719304 17.541565-122.034087-32.701218 4.697043-17.541565 18.832696 5.053218 29.250783-109.145044-16.005566-4.296348 4.630261-17.296695 16.027826 4.296347 7.724522-28.894608 18.053565 4.830608z m15.471305 143.538087l-50.309566-13.490087-6.767304 25.288348 50.309565 13.490087 6.767305-25.288348z m-168.42574-47.348869l-83.344695-22.327652-5.12 19.077565 83.344695 22.349913 5.12-19.099826zM361.071304 373.381565l-35.862261-9.616695-7.346086 11.865043c-1.936696 31.009391-0.979478 58.368 3.027478 82.67687 16.65113-22.928696 30.007652-51.155478 40.180869-84.925218z m553.561044 182.895305l-48.773565-13.067131-10.573913 39.468522-2.003479 6.388869 49.040696 13.133913 12.310261-45.924173z m-116.246261-31.699479l-50.309565-13.490087-6.834087 25.555479 50.309565 13.467826 6.834087-25.533218zM619.965217 381.328696l-4.496695 16.784695 64 17.14087-4.073739 15.226435-64-17.14087-4.630261 17.274435 54.694956 14.669913-4.006956 14.959304-54.694957-14.669913-4.697043 17.563826 70.433391 18.877218-4.140522 15.471304-157.918608-42.295652 4.140521-15.493565 69.676522 18.654608 4.697044-17.541565-52.112696-13.957565 4.006956-14.981565 52.112696 13.979826 4.630261-17.296696-62.441739-16.717913 4.096-15.226435 62.441739 16.717913 4.496696-16.762434 17.808695 4.763826z m557.701566 148.880695l-7.524174 28.137739 58.056348 15.560348-4.496696 16.762435-58.056348-15.560348-8.637217 32.256 68.630261 18.387478-4.563479 17.029566-153.800348-41.182609 4.563479-17.051826 67.361391 18.031304 8.637217-32.233739-57.544347-15.426782 4.496695-16.762435 57.544348 15.404521 7.524174-28.115478 17.808696 4.763826z m-114.020174-31.654956l14.246956 11.842782c-19.411478 22.884174-44.922435 41.293913-76.889043 54.939826l-8.125218 3.294609-0.667826-19.255652c29.896348-12.466087 53.51513-29.339826 71.435131-50.821565z m-253.996522-16.050087l-50.309565-13.490087-6.90087 25.800348 50.309565 13.490087 6.90087-25.822609z m121.633391 11.575652l-48.751304-13.089391-12.109913 45.167304 48.751304 13.06713 12.109913-45.167304z m-702.575304-218.156522l-5.743304 21.437218 36.88626 9.883826 5.676522-21.147826 17.541565 4.674782-5.65426 21.170087 28.382608 7.613218-4.697043 17.541565-28.40487-7.613218-5.943652 22.194087-17.541565-4.697043 5.943652-22.194087-36.886261-9.883826-4.897391 18.320696-17.563826-4.697044 4.897391-18.320696-31.721739-8.503652 4.697043-17.541565 31.744 8.503652 5.743305-21.414956 17.541565 4.674782z m256.333913 72.303305c11.842783 15.026087 21.570783 29.673739 29.362087 43.853913l3.739826 7.034434-16.11687 9.527653c-6.566957-13.378783-15.961043-28.137739-28.137739-44.299131l-5.409391-7.012174 16.562087-9.126956z m140.466087-39.067826c17.274435 4.630261 27.447652 11.931826 39.067826 25.822608l3.227826 3.940174 6.989913 8.681739c6.477913 7.590957 11.798261 11.776 19.033044 14.313739l3.250087 0.979479 5.364869 1.446956-2.893913 10.752-5.342609-1.446956c-11.486609-3.072-18.966261-8.43687-27.648-18.543305l-3.33913-4.029217-7.257044-9.082435c-10.24-12.154435-18.67687-18.142609-33.346782-22.082782-14.202435-3.806609-22.884174-2.982957-37.843478 2.493217l-4.674783 1.780869-5.654261 2.181566c-17.497043 6.41113-28.672 7.524174-46.391652 2.782608-17.719652-4.763826-27.091478-11.442087-39.245913-25.733565l-3.383652-4.073739-4.073739-4.941913c-10.106435-11.909565-17.185391-16.940522-30.764522-20.591304-13.890783-3.717565-21.303652-2.626783-34.03687 3.762087l-3.606261 1.869913-3.917913 2.003478c-15.026087 7.524174-24.932174 9.126957-41.961739 4.563478-16.205913-4.34087-24.976696-10.640696-36.663652-24.264348l-3.272348-3.895652-4.340869-5.186782c-10.885565-12.644174-18.69913-18.098087-33.836522-22.149566-15.137391-4.073739-23.81913-3.183304-39.112348 2.693566l-4.318609 1.736347-4.563478 1.803131c-17.408 6.700522-28.271304 7.902609-46.169043 3.094261-17.764174-4.763826-26.980174-11.308522-39.268174-25.689044l-3.428174-4.118261-3.739826-4.496695c-10.551652-12.354783-17.808696-17.474783-32.166957-21.325913-14.692174-3.940174-24.264348-2.938435-38.733913 2.671304l-4.452174 1.825391-8.392348 3.450435c-12.399304 4.786087-21.370435 6.188522-32.656695 3.917913l-4.34087-1.024L22.26087 193.625043l2.893913-10.752 5.342608 1.446957c10.841043 2.893913 18.365217 2.048 30.430609-2.649043l4.185043-1.691827 3.56174-1.513739c19.122087-8.058435 31.432348-10.061913 50.398608-4.986434 17.007304 4.563478 25.86713 10.907826 37.843479 24.932173l3.33913 4.029218 3.561739 4.296348c10.99687 12.911304 18.587826 18.276174 33.858783 22.372174 15.204174 4.073739 23.952696 3.183304 39.245913-2.693566l4.340869-1.736347 4.541218-1.803131c17.363478-6.678261 28.204522-7.880348 46.057739-3.116522 17.741913 4.763826 27.158261 11.464348 39.490782 25.778087l3.428174 4.096 4.140522 4.986435c10.284522 11.954087 17.430261 17.007304 31.031652 20.658087 13.957565 3.739826 21.370435 2.626783 34.125913-3.762087l3.628522-1.869913 3.895652-2.003478c15.026087-7.524174 24.932174-9.104696 41.894957-4.563478 16.205913 4.34087 24.887652 10.618435 36.441043 24.219826l3.205565 3.895652 4.251827 5.142261c10.729739 12.599652 18.476522 18.031304 33.569391 22.082782 15.181913 4.073739 24.30887 3.183304 39.936-2.582261l4.429913-1.691826 5.542956-2.114782c17.029565-6.255304 27.759304-7.368348 44.655305-2.849392z m8.637217-32.256c17.296696 4.630261 27.447652 11.954087 39.090087 25.822608l3.205565 3.940174 6.989914 8.681739c6.477913 7.590957 11.798261 11.776 19.033043 14.313739l3.250087 0.979479 5.36487 1.446956-2.893914 10.752-5.342608-1.446956c-11.486609-3.072-18.944-8.43687-27.648-18.543305l-3.339131-4.029217-7.257043-9.082435c-10.217739-12.154435-18.654609-18.142609-33.324522-22.082782-14.246957-3.806609-22.906435-2.982957-37.843478 2.515478l-4.674783 1.780869-5.676521 2.159305c-17.497043 6.41113-28.649739 7.524174-46.369392 2.782608-17.741913-4.763826-27.113739-11.442087-39.245913-25.733565L494.057739 267.130435l-4.073739-4.941913c-10.106435-11.909565-17.185391-16.940522-30.742261-20.591305-13.913043-3.717565-21.325913-2.626783-34.05913 3.762087l-3.606261 1.869913-3.895652 2.003479c-15.048348 7.546435-24.954435 9.126957-41.984 4.563478-16.205913-4.34087-24.976696-10.640696-36.663653-24.264348l-3.272347-3.895652-4.318609-5.186783c-10.907826-12.644174-18.69913-18.098087-33.836522-22.149565-15.137391-4.051478-23.841391-3.161043-39.112348 2.693565l-4.340869 1.736348-4.541218 1.803131c-17.430261 6.700522-28.271304 7.902609-46.191304 3.116521-17.764174-4.786087-26.980174-11.353043-39.268174-25.711304l-3.428174-4.118261-3.717565-4.496696c-10.551652-12.354783-17.808696-17.474783-32.189217-21.325913-14.692174-3.940174-24.264348-2.938435-38.733913 2.671305l-4.452174 1.825391-8.392348 3.450435c-12.399304 4.786087-21.370435 6.188522-32.634435 3.917913l-4.340869-1.024-5.387131-1.446957 2.893913-10.752 5.36487 1.446957c10.818783 2.893913 18.365217 2.048 30.408348-2.649044l4.207304-1.691826 3.539478-1.513739c19.122087-8.058435 31.432348-10.061913 50.398609-4.986435 17.007304 4.563478 25.86713 10.907826 37.843478 24.932174l3.361391 4.051479 3.56174 4.274087c10.974609 12.911304 18.565565 18.276174 33.836521 22.372173 15.204174 4.073739 23.952696 3.183304 39.245913-2.693565l4.34087-1.736348 4.541217-1.80313c17.385739-6.678261 28.204522-7.880348 46.08-3.116522 17.719652 4.763826 27.158261 11.464348 39.468522 25.778087l3.428174 4.096 4.162783 4.986435c10.262261 11.954087 17.408 17.007304 31.031652 20.658087 13.935304 3.739826 21.370435 2.626783 34.103652-3.762087l3.628522-1.869913 3.895652-2.003478c15.026087-7.524174 24.932174-9.104696 41.894956-4.563479 16.205913 4.34087 24.887652 10.618435 36.441044 24.219826l3.227826 3.895653 4.229565 5.142261c10.729739 12.599652 18.476522 18.031304 33.569391 22.082782 15.181913 4.073739 24.30887 3.183304 39.936-2.582261l4.452174-1.691826 5.520696-2.114782c17.051826-6.255304 27.781565-7.368348 44.655304-2.849392z m148.079305-81.318957a332.8 332.8 0 0 1 200.45913 151.663304l-32.077913-8.592695a310.383304 310.383304 0 0 0-174.146783-121.544348 310.383304 310.383304 0 0 0-211.567304 18.18713l-32.100174-8.592695A332.8 332.8 0 0 1 782.246957 195.606261z m43.208347-161.257739c183.496348 49.152 315.748174 194.070261 357.420522 366.569739l-24.665043-6.611478c-42.896696-159.610435-167.401739-292.59687-338.521044-338.454261-171.097043-45.857391-345.421913 7.078957-462.380521 123.859478l-24.665044-6.611478C454.967652 44.521739 641.958957-14.825739 825.433043 34.348522z m-187.280695 53.938087l19.500522 22.216348 29.362087-3.472696-15.137392 25.421913 12.377044 26.846609-28.827826-6.500174-21.726609 20.034782-2.693565-29.428869-25.822609-14.447304 27.180522-11.686957 5.787826-28.983652zM954.323478 156.872348l-1.936695 29.517913 23.218087 18.298435-28.64974 7.301565-10.24 27.714782-15.805217-24.998956-29.517913-1.157565 18.877217-22.750609-8.013913-28.449391 27.469913 10.952348 24.598261-16.428522zM809.605565 93.495652l5.787826 29.005913 27.158261 11.664696-25.822609 14.469565-2.693565 29.42887-21.726608-20.057044-28.827827 6.522435 12.354783-26.86887-15.092869-25.399652 29.362086 3.472696 19.500522-22.238609z" fill="#8a8a8a" opacity=".5" p-id="4362"></path></svg>